<svg width="125" height="25" viewBox="0 0 125 25" fill="none" xmlns="http://www.w3.org/2000/svg">
<path d="M10.3525 3.63495C10.4729 3.42838 10.6453 3.25699 10.8526 3.13787C11.0599 3.01874 11.2948 2.95605 11.5339 2.95605C11.773 2.95605 12.0079 3.01874 12.2152 3.13787C12.4225 3.25699 12.5949 3.42838 12.7153 3.63495L15.7727 8.88336L21.7102 10.1698C21.9438 10.2205 22.16 10.3316 22.3372 10.4919C22.5144 10.6523 22.6466 10.8563 22.7204 11.0836C22.7942 11.3109 22.8071 11.5536 22.7579 11.7875C22.7087 12.0214 22.599 12.2383 22.4398 12.4166L18.3925 16.9463L19.0051 22.99C19.0292 23.228 18.9906 23.4681 18.8929 23.6865C18.7952 23.9048 18.642 24.0937 18.4484 24.2343C18.2549 24.3749 18.0279 24.4623 17.7901 24.4877C17.5522 24.5131 17.3118 24.4757 17.093 24.3792L11.5339 21.9289L5.97484 24.3792C5.75598 24.4757 5.51562 24.5131 5.27778 24.4877C5.03993 24.4623 4.81291 24.3749 4.61939 24.2343C4.42587 24.0937 4.27262 23.9048 4.17495 23.6865C4.07727 23.4681 4.03858 23.228 4.06275 22.99L4.67532 16.9463L0.627982 12.4177C0.468525 12.2394 0.358621 12.0224 0.309242 11.7884C0.259863 11.5544 0.272736 11.3115 0.346576 11.084C0.420416 10.8565 0.55264 10.6523 0.730047 10.4919C0.907455 10.3315 1.12384 10.2204 1.3576 10.1698L7.29515 8.88336L10.3525 3.63495Z" fill="#FFC64D"/>
<path d="M35.8418 1.82318C35.9622 1.61662 36.1346 1.44522 36.3419 1.3261C36.5492 1.20698 36.7841 1.14429 37.0232 1.14429C37.2623 1.14429 37.4972 1.20698 37.7045 1.3261C37.9117 1.44522 38.0842 1.61662 38.2046 1.82318L41.2619 7.0716L47.1995 8.35799C47.433 8.40874 47.6492 8.51983 47.8265 8.68017C48.0037 8.84052 48.1358 9.04452 48.2096 9.27184C48.2834 9.49916 48.2964 9.74186 48.2472 9.97574C48.198 10.2096 48.0883 10.4265 47.9291 10.6048L43.8818 15.1345L44.4943 21.1782C44.5185 21.4162 44.4798 21.6563 44.3821 21.8747C44.2845 22.093 44.1312 22.2819 43.9377 22.4225C43.7442 22.5631 43.5172 22.6505 43.2793 22.6759C43.0415 22.7014 42.8011 22.6639 42.5822 22.5674L37.0232 20.1171L31.4641 22.5674C31.2452 22.6639 31.0049 22.7014 30.767 22.6759C30.5292 22.6505 30.3022 22.5631 30.1086 22.4225C29.9151 22.2819 29.7619 22.093 29.6642 21.8747C29.5665 21.6563 29.5278 21.4162 29.552 21.1782L30.1646 15.1345L26.1172 10.6059C25.9578 10.4276 25.8479 10.2106 25.7985 9.97662C25.7491 9.74259 25.762 9.4997 25.8358 9.2722C25.9097 9.0447 26.0419 8.84056 26.2193 8.68014C26.3967 8.51972 26.6131 8.40864 26.8469 8.35799L32.7844 7.0716L35.8418 1.82318Z" fill="#FFC64D"/>
<path d="M61.9824 0.917423C62.1028 0.710855 62.2752 0.539461 62.4825 0.420337C62.6898 0.301214 62.9247 0.238525 63.1638 0.238525C63.4029 0.238525 63.6378 0.301214 63.8451 0.420337C64.0524 0.539461 64.2248 0.710855 64.3452 0.917423L67.4026 6.16583L73.3401 7.45223C73.5737 7.50298 73.7898 7.61407 73.9671 7.77441C74.1443 7.93476 74.2764 8.13876 74.3503 8.36608C74.4241 8.5934 74.437 8.8361 74.3878 9.06998C74.3386 9.30387 74.2289 9.52076 74.0697 9.69905L70.0224 14.2288L70.635 20.2724C70.6591 20.5104 70.6204 20.7506 70.5228 20.9689C70.4251 21.1873 70.2718 21.3762 70.0783 21.5168C69.8848 21.6574 69.6578 21.7448 69.4199 21.7702C69.1821 21.7956 68.9417 21.7582 68.7229 21.6617L63.1638 19.2114L57.6047 21.6617C57.3859 21.7582 57.1455 21.7956 56.9077 21.7702C56.6698 21.7448 56.4428 21.6574 56.2493 21.5168C56.0558 21.3762 55.9025 21.1873 55.8048 20.9689C55.7072 20.7506 55.6685 20.5104 55.6926 20.2724L56.3052 14.2288L52.2579 9.70014C52.0984 9.52187 51.9885 9.30489 51.9391 9.07086C51.8897 8.83683 51.9026 8.59394 51.9765 8.36644C52.0503 8.13894 52.1825 7.93479 52.3599 7.77437C52.5373 7.61396 52.7537 7.50288 52.9875 7.45223L58.925 6.16583L61.9824 0.917423Z" fill="#FFC64D"/>
<path d="M86.8174 1.82318C86.9377 1.61662 87.1102 1.44522 87.3175 1.3261C87.5248 1.20698 87.7597 1.14429 87.9988 1.14429C88.2378 1.14429 88.4727 1.20698 88.68 1.3261C88.8873 1.44522 89.0598 1.61662 89.1801 1.82318L92.2375 7.0716L98.1751 8.35799C98.4086 8.40874 98.6248 8.51983 98.802 8.68017C98.9793 8.84052 99.1114 9.04452 99.1852 9.27184C99.259 9.49916 99.272 9.74186 99.2228 9.97574C99.1735 10.2096 99.0639 10.4265 98.9047 10.6048L94.8574 15.1345L95.4699 21.1782C95.4941 21.4162 95.4554 21.6563 95.3577 21.8747C95.26 22.093 95.1068 22.2819 94.9133 22.4225C94.7198 22.5631 94.4927 22.6505 94.2549 22.6759C94.017 22.7014 93.7767 22.6639 93.5578 22.5674L87.9988 20.1171L82.4397 22.5674C82.2208 22.6639 81.9805 22.7014 81.7426 22.6759C81.5048 22.6505 81.2778 22.5631 81.0842 22.4225C80.8907 22.2819 80.7375 22.093 80.6398 21.8747C80.5421 21.6563 80.5034 21.4162 80.5276 21.1782L81.1402 15.1345L77.0928 10.6059C76.9334 10.4276 76.8235 10.2106 76.7741 9.97662C76.7247 9.74259 76.7376 9.4997 76.8114 9.2722C76.8853 9.0447 77.0175 8.84056 77.1949 8.68014C77.3723 8.51972 77.5887 8.40864 77.8224 8.35799L83.76 7.0716L86.8174 1.82318Z" fill="#FFC64D"/>
<path d="M112.306 3.63495C112.426 3.42838 112.598 3.25699 112.806 3.13787C113.013 3.01874 113.248 2.95605 113.487 2.95605C113.726 2.95605 113.961 3.01874 114.168 3.13787C114.376 3.25699 114.548 3.42838 114.668 3.63495L117.726 8.88336L123.663 10.1698C123.897 10.2205 124.113 10.3316 124.29 10.4919C124.468 10.6523 124.6 10.8563 124.673 11.0836C124.747 11.3109 124.76 11.5536 124.711 11.7875C124.662 12.0214 124.552 12.2383 124.393 12.4166L120.346 16.9463L120.958 22.99C120.982 23.228 120.944 23.4681 120.846 23.6865C120.748 23.9048 120.595 24.0937 120.402 24.2343C120.208 24.3749 119.981 24.4623 119.743 24.4877C119.505 24.5131 119.265 24.4757 119.046 24.3792L113.487 21.9289L107.928 24.3792C107.709 24.4757 107.469 24.5131 107.231 24.4877C106.993 24.4623 106.766 24.3749 106.573 24.2343C106.379 24.0937 106.226 23.9048 106.128 23.6865C106.03 23.4681 105.992 23.228 106.016 22.99L106.628 16.9463L102.581 12.4177C102.422 12.2394 102.312 12.0224 102.262 11.7884C102.213 11.5544 102.226 11.3115 102.3 11.084C102.374 10.8565 102.506 10.6523 102.683 10.4919C102.861 10.3315 103.077 10.2204 103.311 10.1698L109.248 8.88336L112.306 3.63495Z" fill="#FFC64D"/>
</svg>
