<svg width="72" height="73" viewBox="0 0 72 73" fill="none" xmlns="http://www.w3.org/2000/svg">
<path d="M25.1918 57.6781H44.8224C45.8336 57.6781 46.7711 57.4221 47.6349 56.9102C48.4986 56.3983 49.1078 55.693 49.4623 54.7942L56.9576 37.1303C57.0766 36.8298 57.1658 36.5294 57.2253 36.229C57.2848 35.9286 57.3145 35.6282 57.3145 35.3278V32.4439C57.3145 31.4225 56.9719 30.5658 56.2866 29.8736C55.6013 29.1815 54.7542 28.8366 53.7453 28.839H37.3271L39.4686 16.5824C39.5876 15.9816 39.5578 15.4109 39.3793 14.8701C39.2009 14.3294 38.9035 13.8487 38.4871 13.4282L35.8994 10.8146L19.4811 28.839C19.0052 29.3197 18.6483 29.8604 18.4104 30.4612C18.1724 31.062 18.0535 31.7229 18.0535 32.4439V50.4683C18.0535 52.451 18.753 54.1489 20.1521 55.562C21.5513 56.9751 23.2312 57.6805 25.1918 57.6781ZM35.8994 72.0976C30.962 72.0976 26.3221 71.1507 21.9796 69.2569C17.6371 67.3632 13.8597 64.7953 10.6474 61.5533C7.43512 58.3089 4.89267 54.4938 3.02004 50.1078C1.14741 45.7219 0.209899 41.0355 0.20752 36.0488C0.20752 31.062 1.14503 26.3757 3.02004 21.9898C4.89505 17.6038 7.4375 13.7887 10.6474 10.5443C13.8597 7.29988 17.6371 4.73201 21.9796 2.84065C26.3221 0.949285 30.962 0.00240325 35.8994 0C40.8368 0 45.4767 0.946882 49.8192 2.84065C54.1617 4.73441 57.9391 7.30228 61.1514 10.5443C64.3637 13.7887 66.9073 17.6038 68.7823 21.9898C70.6573 26.3757 71.5936 31.062 71.5913 36.0488C71.5913 41.0355 70.6538 45.7219 68.7787 50.1078C66.9037 54.4938 64.3613 58.3089 61.1514 61.5533C57.9391 64.7977 54.1617 67.3668 49.8192 69.2605C45.4767 71.1543 40.8368 72.1 35.8994 72.0976ZM35.8994 64.8878C43.8706 64.8878 50.6223 62.094 56.1545 56.5065C61.6868 50.9189 64.4529 44.0997 64.4529 36.0488C64.4529 27.9979 61.6868 21.1787 56.1545 15.5911C50.6223 10.0035 43.8706 7.20976 35.8994 7.20976C27.9282 7.20976 21.1765 10.0035 15.6443 15.5911C10.112 21.1787 7.34589 27.9979 7.34589 36.0488C7.34589 44.0997 10.112 50.9189 15.6443 56.5065C21.1765 62.094 27.9282 64.8878 35.8994 64.8878Z" fill="#FFD700"/>
</svg>
