<svg width="176" height="36" viewBox="0 0 176 36" fill="none" xmlns="http://www.w3.org/2000/svg">
<mask id="path-1-inside-1_274_608" fill="white">
<path d="M1.37682 35.4823C1.41138 35.3811 16.82 18.6006 16.82 17.9547C16.82 17.3243 -0.00626556 1.10768 1.75036e-06 0.996457C0.00943201 0.807282 0.0366104 0.61765 0.0641397 0.428476C0.0769086 0.333661 0.0805982 0.237934 0.0920785 0.142663C1.03352 0.124429 1.98153 0.11896 2.92256 0.0975351C3.99222 0.0733755 5.05983 0.0451098 6.12791 0.021406C8.27959 -0.027825 10.4301 0.0186711 12.5769 0.0528593C14.7451 0.0875033 16.9095 0.108475 19.0809 0.117136C21.3659 0.125341 23.6528 0.130811 25.9377 0.117136C30.1598 0.0920647 47.2544 0.152236 48.3075 0.135826C49.2904 0.120783 50.2685 0.103002 51.2526 0.097076C53.2616 0.0852241 165.585 0.0847678 167.594 0.0979872C168.783 0.105281 169.969 0.108014 171.158 0.107558C171.689 0.107558 172.222 0.103913 172.756 0.0988984C172.94 0.097075 173.125 0.0934296 173.311 0.0902387C173.364 0.159983 173.41 0.230186 173.461 0.298107C173.533 0.393834 173.591 0.489556 173.648 0.585283C173.754 0.85423 156.667 17.6206 156.74 18.2095C156.808 18.762 174.829 33.8951 174.954 34.2643C175.046 34.5419 175.149 34.9244 175.099 35.2033C174.075 35.2311 173.116 35.2371 172.152 35.2521C171.625 35.2603 138.892 34.2119 104.317 34.2643C61.7032 34.329 15.5547 35.4983 14.5799 35.516C13.6931 35.5329 12.8068 35.5484 11.9189 35.5557"/>
</mask>
<path d="M1.37682 35.4823C1.41138 35.3811 16.82 18.6006 16.82 17.9547C16.82 17.3243 -0.00626556 1.10768 1.75036e-06 0.996457C0.00943201 0.807282 0.0366104 0.61765 0.0641397 0.428476C0.0769086 0.333661 0.0805982 0.237934 0.0920785 0.142663C1.03352 0.124429 1.98153 0.11896 2.92256 0.0975351C3.99222 0.0733755 5.05983 0.0451098 6.12791 0.021406C8.27959 -0.027825 10.4301 0.0186711 12.5769 0.0528593C14.7451 0.0875033 16.9095 0.108475 19.0809 0.117136C21.3659 0.125341 23.6528 0.130811 25.9377 0.117136C30.1598 0.0920647 47.2544 0.152236 48.3075 0.135826C49.2904 0.120783 50.2685 0.103002 51.2526 0.097076C53.2616 0.0852241 165.585 0.0847678 167.594 0.0979872C168.783 0.105281 169.969 0.108014 171.158 0.107558C171.689 0.107558 172.222 0.103913 172.756 0.0988984C172.94 0.097075 173.125 0.0934296 173.311 0.0902387C173.364 0.159983 173.41 0.230186 173.461 0.298107C173.533 0.393834 173.591 0.489556 173.648 0.585283C173.754 0.85423 156.667 17.6206 156.74 18.2095C156.808 18.762 174.829 33.8951 174.954 34.2643C175.046 34.5419 175.149 34.9244 175.099 35.2033C174.075 35.2311 173.116 35.2371 172.152 35.2521C171.625 35.2603 138.892 34.2119 104.317 34.2643C61.7032 34.329 15.5547 35.4983 14.5799 35.516C13.6931 35.5329 12.8068 35.5484 11.9189 35.5557" fill="#D84040"/>
<path d="M-2.18951 34.2644C-2.86212 36.2341 -1.81069 38.376 0.158943 39.0486C2.12857 39.7213 4.27053 38.6698 4.94315 36.7002L-2.18951 34.2644ZM1.75036e-06 0.996457L3.76258 1.20847C3.76304 1.20034 3.76347 1.19221 3.76387 1.18408L1.75036e-06 0.996457ZM0.0641397 0.428476L3.7934 0.971171C3.79533 0.957941 3.79718 0.944701 3.79897 0.931451L0.0641397 0.428476ZM0.0920785 0.142663L0.0191037 -3.62518C-1.8597 -3.58879 -3.42459 -2.17385 -3.6494 -0.308191L0.0920785 0.142663ZM2.92256 0.0975351L2.83747 -3.67005L2.83679 -3.67003L2.92256 0.0975351ZM6.12791 0.021406L6.21153 3.78902L6.21412 3.78897L6.12791 0.021406ZM12.5769 0.0528593L12.6371 -3.7152L12.6369 -3.71521L12.5769 0.0528593ZM19.0809 0.117136L19.0659 3.88565L19.0674 3.88566L19.0809 0.117136ZM25.9377 0.117136L25.9153 -3.65134L25.9152 -3.65134L25.9377 0.117136ZM48.3075 0.135826L48.2498 -3.63228L48.2488 -3.63226L48.3075 0.135826ZM51.2526 0.097076L51.2303 -3.6714L51.2299 -3.6714L51.2526 0.097076ZM167.594 0.0979872L167.57 3.86645L167.571 3.86646L167.594 0.0979872ZM171.158 0.107558V-3.66099L171.157 -3.66099L171.158 0.107558ZM172.756 0.0988984L172.791 3.86728L172.793 3.86726L172.756 0.0988984ZM173.311 0.0902387L176.318 -2.18212C175.592 -3.14265 174.45 -3.69844 173.246 -3.67775L173.311 0.0902387ZM173.461 0.298107L170.446 2.55975L170.449 2.56426L173.461 0.298107ZM173.648 0.585283L177.154 -0.796752C177.08 -0.984014 176.991 -1.16506 176.889 -1.33815L173.648 0.585283ZM156.74 18.2095L160.481 17.7534L160.48 17.7446L156.74 18.2095ZM174.954 34.2643L178.531 33.0793C178.529 33.0705 178.526 33.0617 178.523 33.0529L174.954 34.2643ZM175.099 35.2033L175.201 38.9705C176.988 38.922 178.495 37.625 178.809 35.8654L175.099 35.2033ZM172.152 35.2521L172.211 39.0202H172.211L172.152 35.2521ZM104.317 34.2643L104.312 30.4958H104.312L104.317 34.2643ZM14.5799 35.516L14.5112 31.7481L14.5083 31.7482L14.5799 35.516ZM11.8879 31.7873C9.80666 31.8044 8.13334 33.5054 8.15043 35.5867C8.16753 37.6679 9.86857 39.3412 11.9498 39.3241L11.8879 31.7873ZM4.94315 36.7002C4.86326 36.9129 4.71384 37.2333 4.65337 37.344C4.61322 37.4129 4.54218 37.5272 4.51232 37.5726C4.45306 37.6614 4.40308 37.7278 4.38303 37.7542C4.33847 37.813 4.30313 37.8557 4.29516 37.8654C4.27302 37.8922 4.26036 37.9065 4.2695 37.896C4.28262 37.8809 4.31328 37.8461 4.36797 37.7848C4.47407 37.6658 4.63445 37.4877 4.84604 37.2536C5.26763 36.7872 5.86913 36.1245 6.59537 35.324C8.04473 33.7266 9.97911 31.5938 11.9135 29.4427C13.8447 27.2951 15.7903 25.1134 17.2584 23.4214C17.9884 22.5799 18.6245 21.8318 19.0876 21.2595C19.3136 20.9801 19.5361 20.6964 19.7162 20.4436C19.801 20.3246 19.9247 20.1454 20.0426 19.9403C20.0999 19.8408 20.1967 19.6649 20.2895 19.4412C20.3416 19.3158 20.5886 18.7351 20.5886 17.9547H13.0515C13.0515 17.1945 13.2909 16.6419 13.3282 16.5521C13.4062 16.3641 13.4809 16.2316 13.509 16.1828C13.5686 16.079 13.6058 16.0307 13.5777 16.0701C13.5321 16.1342 13.4235 16.2773 13.2281 16.5188C12.8484 16.9882 12.2804 17.6579 11.5654 18.482C10.1432 20.1211 8.23449 22.2619 6.3092 24.4029C4.38716 26.5403 2.4629 28.6619 1.01342 30.2595C0.290245 31.0566 -0.317727 31.7264 -0.745405 32.1996C-0.958449 32.4353 -1.13267 32.6287 -1.25608 32.767C-1.31613 32.8343 -1.37396 32.8996 -1.42117 32.9539C-1.44221 32.9781 -1.478 33.0196 -1.516 33.0656C-1.5319 33.0848 -1.57335 33.1352 -1.62217 33.1996C-1.64435 33.2288 -1.696 33.2975 -1.75646 33.3881C-1.78692 33.4345 -1.85845 33.5495 -1.89897 33.6191C-1.95981 33.7304 -2.10949 34.0513 -2.18951 34.2644L4.94315 36.7002ZM20.5886 17.9547C20.5886 17.0828 20.2806 16.4442 20.2231 16.3209C20.1131 16.0851 19.9998 15.9027 19.9352 15.8029C19.8011 15.5957 19.662 15.4172 19.5692 15.3017C19.3708 15.0547 19.1267 14.7788 18.8802 14.5088C18.3745 13.9548 17.6801 13.2313 16.8835 12.4179C15.2816 10.7822 13.1588 8.67309 11.0536 6.59738C8.94568 4.51905 6.83662 2.45561 5.26385 0.913547C4.47476 0.139867 3.82484 -0.498477 3.37345 -0.945748C3.14587 -1.17126 2.98011 -1.33695 2.87556 -1.44333C2.81974 -1.50012 2.80109 -1.51999 2.80462 -1.5162C2.80714 -1.5135 2.81532 -1.5047 2.82737 -1.49132C2.83778 -1.47975 2.86193 -1.45276 2.8932 -1.41566C2.91276 -1.39247 2.99102 -1.29977 3.08207 -1.17073C3.12244 -1.11352 3.22602 -0.964446 3.3343 -0.759067C3.38823 -0.652703 3.5067 -0.383285 3.56692 -0.219319C3.64525 0.0407139 3.76081 0.755493 3.76258 1.20847L-3.76257 0.784444C-3.76083 1.23785 -3.64517 1.95319 -3.5666 2.2139C-3.50615 2.37855 -3.38732 2.64877 -3.33291 2.75606C-3.22365 2.96329 -3.11859 3.11469 -3.07623 3.17473C-2.9812 3.30941 -2.89693 3.40967 -2.86939 3.44235C-2.79989 3.52479 -2.73693 3.59267 -2.70922 3.6224C-2.64238 3.69412 -2.5669 3.7717 -2.49983 3.83995C-2.35859 3.98365 -2.16348 4.17838 -1.93158 4.40816C-1.46398 4.87149 -0.800373 5.52324 -0.0128792 6.29536C1.56751 7.84489 3.66384 9.89586 5.76176 11.9644C7.86234 14.0355 9.94565 16.1057 11.4985 17.6914C12.2793 18.4887 12.8994 19.1364 13.3138 19.5904C13.5274 19.8244 13.6448 19.9617 13.6929 20.0215C13.7233 20.0594 13.6787 20.0078 13.6083 19.899C13.5755 19.8483 13.4863 19.708 13.3925 19.5068C13.3512 19.4182 13.0515 18.807 13.0515 17.9547H20.5886ZM3.76387 1.18408C3.76287 1.20422 3.7621 1.20198 3.76675 1.16343C3.77187 1.12095 3.77909 1.06951 3.7934 0.971171L-3.66512 -0.114219C-3.68931 0.051948 -3.74418 0.41385 -3.76387 0.80883L3.76387 1.18408ZM3.79897 0.931451C3.81975 0.777158 3.83058 0.641419 3.83426 0.597072C3.83701 0.563885 3.83735 0.559581 3.83786 0.554017C3.83802 0.55221 3.83664 0.567959 3.83356 0.593517L-3.6494 -0.308191C-3.65822 -0.234998 -3.66437 -0.171555 -3.66853 -0.125656C-3.67234 -0.0835132 -3.67587 -0.0400971 -3.67707 -0.0255907C-3.67891 -0.00342065 -3.67901 -0.00304799 -3.67847 -0.00860209C-3.67777 -0.0157706 -3.67535 -0.0398715 -3.67069 -0.0744995L3.79897 0.931451ZM0.165053 3.9105C0.985138 3.89462 2.11156 3.88552 3.00834 3.8651L2.83679 -3.67003C1.8515 -3.6476 1.08191 -3.64576 0.0191037 -3.62518L0.165053 3.9105ZM3.00766 3.86512C4.14029 3.83954 5.10098 3.81367 6.21153 3.78902L6.0443 -3.74621C5.01869 -3.72345 3.84416 -3.69279 2.83747 -3.67005L3.00766 3.86512ZM6.21412 3.78897C8.27442 3.74182 10.3355 3.78619 12.5169 3.82093L12.6369 -3.71521C10.5248 -3.74884 8.28476 -3.79747 6.04171 -3.74615L6.21412 3.78897ZM12.5167 3.82092C14.7006 3.85582 16.8802 3.87693 19.0659 3.88565L19.096 -3.65138C16.9388 -3.65998 14.7895 -3.68081 12.6371 -3.7152L12.5167 3.82092ZM19.0674 3.88566C21.3536 3.89387 23.656 3.8994 25.9603 3.88561L25.9152 -3.65134C23.6496 -3.63778 21.3781 -3.64318 19.0945 -3.65138L19.0674 3.88566ZM25.9601 3.88561C30.0454 3.86136 47.3217 3.92019 48.3662 3.90391L48.2488 -3.63226C47.1871 -3.61572 30.2743 -3.67723 25.9153 -3.65134L25.9601 3.88561ZM48.3652 3.90393C49.3628 3.88866 50.3141 3.87134 51.2753 3.86555L51.2299 -3.6714C50.223 -3.66534 49.2179 -3.6471 48.2498 -3.63228L48.3652 3.90393ZM51.2748 3.86556C53.2699 3.85379 165.578 3.85335 167.57 3.86645L167.619 -3.67048C165.593 -3.68381 53.2533 -3.68334 51.2303 -3.6714L51.2748 3.86556ZM167.571 3.86646C168.769 3.87381 169.964 3.87656 171.159 3.8761L171.157 -3.66099C169.974 -3.66053 168.796 -3.66325 167.618 -3.67049L167.571 3.86646ZM171.158 3.8761C171.706 3.8761 172.252 3.87235 172.791 3.86728L172.72 -3.66948C172.193 -3.66452 171.673 -3.66099 171.158 -3.66099V3.8761ZM172.793 3.86726C172.996 3.86526 173.203 3.8612 173.376 3.85823L173.246 -3.67775C173.048 -3.67434 172.885 -3.67111 172.719 -3.66946L172.793 3.86726ZM170.305 2.3626C170.285 2.33668 170.274 2.31953 170.301 2.35898C170.311 2.3726 170.332 2.40271 170.354 2.43381C170.378 2.46676 170.409 2.51038 170.446 2.55975L176.475 -1.96354C176.487 -1.94812 176.493 -1.93875 176.492 -1.94025C176.49 -1.94359 176.487 -1.94813 176.472 -1.96927C176.451 -1.99934 176.39 -2.08646 176.318 -2.18212L170.305 2.3626ZM170.449 2.56426C170.417 2.52172 170.397 2.49024 170.389 2.47857C170.386 2.47297 170.385 2.47164 170.388 2.47671C170.391 2.48216 170.397 2.49144 170.407 2.50872L176.889 -1.33815C176.82 -1.45354 176.675 -1.69821 176.472 -1.96804L170.449 2.56426ZM170.142 1.96732C169.651 0.721223 169.991 -0.337408 170.044 -0.507861C170.148 -0.848822 170.278 -1.09526 170.331 -1.1925C170.447 -1.40594 170.556 -1.5518 170.575 -1.57857C170.636 -1.66054 170.668 -1.69512 170.626 -1.6465C170.56 -1.56973 170.425 -1.42159 170.205 -1.1876C169.775 -0.731283 169.139 -0.0745558 168.348 0.732547C166.771 2.34335 164.66 4.4691 162.526 6.62812C160.403 8.77601 158.258 10.9548 156.645 12.6375C155.843 13.4742 155.145 14.2177 154.639 14.7846C154.393 15.0603 154.147 15.3444 153.948 15.5994C153.856 15.717 153.712 15.9077 153.574 16.1317C153.508 16.238 153.386 16.4449 153.273 16.7155C153.221 16.8383 152.871 17.6302 153 18.6744L160.48 17.7446C160.608 18.7705 160.263 19.5361 160.226 19.6249C160.127 19.8616 160.027 20.0268 159.991 20.0841C159.914 20.2101 159.861 20.2732 159.89 20.2356C159.934 20.1801 160.048 20.0434 160.262 19.8037C160.675 19.34 161.299 18.6749 162.087 17.8527C163.654 16.2177 165.76 14.0776 167.887 11.9267C170.002 9.78688 172.139 7.63381 173.733 6.00688C174.528 5.19511 175.208 4.49324 175.693 3.97887C175.929 3.72752 176.151 3.48729 176.323 3.28862C176.4 3.19952 176.523 3.05547 176.642 2.89424C176.691 2.82784 176.821 2.6499 176.95 2.4122C177.01 2.30283 177.144 2.0462 177.251 1.69704C177.306 1.51839 177.647 0.453545 177.154 -0.796752L170.142 1.96732ZM152.999 18.6656C153.107 19.5504 153.511 20.1633 153.552 20.2296C153.676 20.4301 153.796 20.5837 153.862 20.6653C154 20.8371 154.14 20.9873 154.237 21.0876C154.443 21.302 154.698 21.5473 154.962 21.7945C155.503 22.3002 156.246 22.9672 157.102 23.7239C158.824 25.244 161.103 27.2135 163.367 29.1619C165.641 31.1187 167.895 33.052 169.598 34.5264C170.45 35.2644 171.147 35.8729 171.63 36.3038C171.875 36.5225 172.043 36.6752 172.141 36.7682C172.195 36.8192 172.196 36.8215 172.168 36.7927C172.158 36.7824 172.099 36.7206 172.022 36.6272C171.985 36.5814 171.909 36.4869 171.822 36.3579C171.77 36.2804 171.548 35.953 171.386 35.4757L178.523 33.0529C178.359 32.5698 178.132 32.2349 178.074 32.148C177.981 32.0097 177.896 31.904 177.848 31.8454C177.75 31.7262 177.662 31.6317 177.614 31.5819C177.511 31.4742 177.403 31.3705 177.318 31.2902C177.139 31.1207 176.906 30.9099 176.646 30.6784C176.12 30.2088 175.388 29.5702 174.532 28.8289C172.818 27.3448 170.54 25.391 168.284 23.4494C166.018 21.4993 163.772 19.5589 162.092 18.0746C161.247 17.3291 160.571 16.7203 160.112 16.2912C159.877 16.0711 159.738 15.9342 159.672 15.866C159.633 15.8251 159.668 15.8589 159.734 15.941C159.764 15.9778 159.856 16.0932 159.961 16.2624C159.982 16.2974 160.375 16.8859 160.481 17.7534L152.999 18.6656ZM171.377 35.4493C171.397 35.5104 171.388 35.4961 171.375 35.4262C171.368 35.387 171.353 35.2977 171.346 35.1697C171.34 35.0476 171.338 34.8256 171.389 34.5412L178.809 35.8654C178.95 35.0728 178.849 34.3886 178.784 34.0404C178.709 33.6402 178.603 33.2958 178.531 33.0793L171.377 35.4493ZM174.996 31.4362C174 31.4632 173.103 31.4683 172.093 31.484L172.211 39.0202C173.128 39.0059 174.149 38.9991 175.201 38.9705L174.996 31.4362ZM172.093 31.484C172.135 31.4834 171.715 31.4731 170.607 31.4427C169.595 31.415 168.135 31.3748 166.291 31.3266C162.603 31.2301 157.374 31.1013 151.079 30.9739C138.492 30.719 121.636 30.4695 104.312 30.4958L104.323 38.0328C121.574 38.0067 138.372 38.2552 150.927 38.5094C163.343 38.7608 171.862 39.0256 172.211 39.0202L172.093 31.484ZM104.312 30.4958C61.6555 30.5606 15.4482 31.731 14.5112 31.7481L14.6487 39.284C15.6612 39.2655 61.7508 38.0975 104.323 38.0328L104.312 30.4958ZM14.5083 31.7482C13.6236 31.765 12.7543 31.7802 11.8879 31.7873L11.9498 39.3241C12.8593 39.3166 13.7627 39.3008 14.6516 39.2839L14.5083 31.7482Z" fill="#D84040" mask="url(#path-1-inside-1_274_608)"/>
<path d="M40.0497 9.8871V12.2978H36.0817V24.7778H33.095V12.2978H29.127V9.8871H40.0497ZM49.1409 24.9272C47.7471 24.9272 46.4671 24.6001 45.3009 23.9458C44.1347 23.2916 43.2102 22.3885 42.5276 21.2365C41.8449 20.0703 41.5036 18.7547 41.5036 17.2898C41.5036 15.8391 41.8449 14.5378 42.5276 13.3858C43.2102 12.2196 44.1347 11.3093 45.3009 10.6551C46.4671 10.0009 47.7471 9.67377 49.1409 9.67377C50.5489 9.67377 51.8289 10.0009 52.9809 10.6551C54.1472 11.3093 55.0645 12.2196 55.7329 13.3858C56.4156 14.5378 56.757 15.8391 56.757 17.2898C56.757 18.7547 56.4156 20.0703 55.7329 21.2365C55.0645 22.3885 54.1472 23.2916 52.9809 23.9458C51.8147 24.6001 50.5347 24.9272 49.1409 24.9272ZM49.1409 22.2605C50.0369 22.2605 50.8263 22.0614 51.5089 21.6632C52.1916 21.2507 52.7249 20.6676 53.1089 19.9138C53.4929 19.16 53.6849 18.2854 53.6849 17.2898C53.6849 16.2942 53.4929 15.4267 53.1089 14.6871C52.7249 13.9333 52.1916 13.3573 51.5089 12.9591C50.8263 12.5609 50.0369 12.3618 49.1409 12.3618C48.2449 12.3618 47.4485 12.5609 46.7516 12.9591C46.0689 13.3573 45.5356 13.9333 45.1516 14.6871C44.7676 15.4267 44.5756 16.2942 44.5756 17.2898C44.5756 18.2854 44.7676 19.16 45.1516 19.9138C45.5356 20.6676 46.0689 21.2507 46.7516 21.6632C47.4485 22.0614 48.2449 22.2605 49.1409 22.2605ZM69.8377 14.4951C69.8377 15.2916 69.6457 16.0382 69.2617 16.7351C68.8919 17.432 68.3017 17.9938 67.491 18.4205C66.6945 18.8471 65.6848 19.0605 64.4616 19.0605H61.9656V24.7778H58.979V9.8871H64.4616C65.6137 9.8871 66.595 10.0862 67.4057 10.4844C68.2163 10.8827 68.8208 11.4302 69.219 12.1271C69.6314 12.824 69.8377 13.6133 69.8377 14.4951ZM64.3336 16.6498C65.1585 16.6498 65.7701 16.4649 66.1683 16.0951C66.5665 15.7111 66.7657 15.1778 66.7657 14.4951C66.7657 13.0445 65.955 12.3191 64.3336 12.3191H61.9656V16.6498H64.3336ZM82.1829 24.9272C81.1447 24.9272 80.206 24.7494 79.3669 24.3938C78.542 24.0383 77.8878 23.5263 77.4042 22.8578C76.9206 22.1894 76.6718 21.4 76.6575 20.4898H79.8575C79.9002 21.1014 80.1135 21.5849 80.4975 21.9405C80.8958 22.296 81.4362 22.4738 82.1189 22.4738C82.8158 22.4738 83.3633 22.3103 83.7616 21.9832C84.1598 21.6418 84.3589 21.2009 84.3589 20.6605C84.3589 20.2196 84.2238 19.8569 83.9536 19.5725C83.6833 19.288 83.342 19.0676 82.9296 18.9111C82.5313 18.7405 81.9767 18.5556 81.2656 18.3565C80.2984 18.072 79.5091 17.7947 78.8975 17.5245C78.3002 17.24 77.7811 16.8205 77.3402 16.2658C76.9135 15.6969 76.7002 14.9431 76.7002 14.0045C76.7002 13.1227 76.9206 12.3547 77.3615 11.7004C77.8024 11.0462 78.4211 10.5484 79.2175 10.2071C80.014 9.85155 80.9242 9.67377 81.9482 9.67377C83.4842 9.67377 84.7287 10.0507 85.6816 10.8044C86.6487 11.544 87.182 12.5822 87.2816 13.9191H83.9962C83.9678 13.4071 83.7473 12.9876 83.3349 12.6604C82.9367 12.3191 82.4033 12.1484 81.7349 12.1484C81.1518 12.1484 80.6824 12.2978 80.3269 12.5964C79.9855 12.8951 79.8149 13.3289 79.8149 13.8978C79.8149 14.296 79.9429 14.6302 80.1989 14.9005C80.4691 15.1565 80.7962 15.3698 81.1802 15.5405C81.5784 15.6969 82.1331 15.8818 82.8442 16.0951C83.8113 16.3796 84.6007 16.664 85.2122 16.9485C85.8238 17.2329 86.35 17.6596 86.7909 18.2285C87.2318 18.7974 87.4522 19.544 87.4522 20.4685C87.4522 21.2649 87.246 22.0045 86.8336 22.6872C86.4211 23.3698 85.8167 23.9174 85.0202 24.3298C84.2238 24.7281 83.278 24.9272 82.1829 24.9272ZM93.0283 12.2978V16.0311H98.0416V18.3991H93.0283V22.3458H98.6816V24.7778H90.0416V9.86577H98.6816V12.2978H93.0283ZM104.382 22.4098H109.289V24.7778H101.396V9.8871H104.382V22.4098ZM114.174 22.4098H119.081V24.7778H111.188V9.8871H114.174V22.4098ZM123.966 12.2978V16.0311H128.979V18.3991H123.966V22.3458H129.619V24.7778H120.979V9.86577H129.619V12.2978H123.966ZM140.013 24.7778L136.728 18.9751H135.32V24.7778H132.333V9.8871H137.923C139.075 9.8871 140.056 10.0933 140.867 10.5058C141.677 10.904 142.282 11.4516 142.68 12.1484C143.093 12.8311 143.299 13.5991 143.299 14.4525C143.299 15.4338 143.014 16.3227 142.445 17.1191C141.877 17.9014 141.03 18.4418 139.907 18.7405L143.469 24.7778H140.013ZM135.32 16.7351H137.816C138.627 16.7351 139.231 16.5431 139.629 16.1591C140.028 15.7609 140.227 15.2133 140.227 14.5165C140.227 13.8338 140.028 13.3076 139.629 12.9378C139.231 12.5538 138.627 12.3618 137.816 12.3618H135.32V16.7351Z" fill="white"/>
</svg>
